HIERARCHY
ROOT Hips
{
	OFFSET 0.000000 83.214638 0.000000
	CHANNELS 6 Xposition Yposition Zposition Xrotation Yrotation Zrotation
	JOINT Pelvis
	{
		OFFSET 0.000000 0.000000 0.000000
		CHANNELS 3 Xrotation Yrotation Zrotation
		JOINT LeftUpLeg
		{
			OFFSET 8.479700 -4.795502 -0.379100
			CHANNELS 3 Xrotation Yrotation Zrotation
			JOINT LeftLeg
			{
				OFFSET 0.024144 -32.555107 0.112900
				CHANNELS 3 Xrotation Yrotation Zrotation
				JOINT LeftFoot
				{
					OFFSET -0.024144 -32.638630 -3.012600
					CHANNELS 3 Xrotation Yrotation Zrotation
					JOINT LeftToeBase
					{
						OFFSET 0.970200 -13.225400 11.864200
						CHANNELS 3 Xrotation Yrotation Zrotation
						End Site
						{
							OFFSET 0.000000 12.319262 0.000000
						}
					}
					JOINT LFootTongue
					{
						OFFSET 1.142400 -1.059800 6.665200
						CHANNELS 3 Xrotation Yrotation Zrotation
						End Site
						{
							OFFSET 0.000000 12.319262 0.000000
						}
					}
				}
				JOINT LeftPantLeg
				{
					OFFSET 0.918482 -16.533964 -2.284700
					CHANNELS 3 Xrotation Yrotation Zrotation
					End Site
					{
						OFFSET 0.350399 24.744368 0.000000
					}
				}
			}
		}
		JOINT RightUpLeg
		{
			OFFSET -8.479700 -4.795502 -0.379100
			CHANNELS 3 Xrotation Yrotation Zrotation
			JOINT RightLeg
			{
				OFFSET -0.023144 -32.555092 0.112900
				CHANNELS 3 Xrotation Yrotation Zrotation
				JOINT RightFoot
				{
					OFFSET 0.023144 -32.638641 -3.012700
					CHANNELS 3 Xrotation Yrotation Zrotation
					JOINT RightToeBase
					{
						OFFSET -0.970200 -13.225400 11.864200
						CHANNELS 3 Xrotation Yrotation Zrotation
						End Site
						{
							OFFSET 0.000000 12.319244 0.000000
						}
					}
					JOINT RFootTongue
					{
						OFFSET -1.142200 -1.059800 6.665200
						CHANNELS 3 Xrotation Yrotation Zrotation
						End Site
						{
							OFFSET 0.000000 12.319243 0.000000
						}
					}
				}
				JOINT RightPantLeg
				{
					OFFSET -0.919482 -16.533978 -2.284800
					CHANNELS 3 Xrotation Yrotation Zrotation
					End Site
					{
						OFFSET -0.350400 24.744419 0.000000
					}
				}
			}
		}
	}
	JOINT Spine
	{
		OFFSET 0.000000 7.722000 1.166200
		CHANNELS 3 Xrotation Yrotation Zrotation
		JOINT Spine1
		{
			OFFSET 0.000000 12.024101 0.248800
			CHANNELS 3 Xrotation Yrotation Zrotation
			JOINT Spine2
			{
				OFFSET 0.000000 11.502998 -0.491200
				CHANNELS 3 Xrotation Yrotation Zrotation
				JOINT Neck
				{
					OFFSET 0.000000 18.430702 -3.123100
					CHANNELS 3 Xrotation Yrotation Zrotation
					JOINT Head
					{
						OFFSET 0.000000 9.051102 1.034000
						CHANNELS 3 Xrotation Yrotation Zrotation
						JOINT HairB
						{
							OFFSET 0.208400 24.786102 24.822300
							CHANNELS 3 Xrotation Yrotation Zrotation
							End Site
							{
								OFFSET 0.000000 32.263779 0.000000
							}
						}
						JOINT HairA
						{
							OFFSET -7.081100 24.428299 23.196600
							CHANNELS 3 Xrotation Yrotation Zrotation
							End Site
							{
								OFFSET 0.000000 32.263779 0.000000
							}
						}
						JOINT Hat
						{
							OFFSET 16.728800 15.048294 -15.439601
							CHANNELS 3 Xrotation Yrotation Zrotation
							End Site
							{
								OFFSET 0.000000 32.263779 0.000000
							}
						}
					}
				}
				JOINT LeftShoulder
				{
					OFFSET 6.197800 13.665199 -4.064700
					CHANNELS 3 Xrotation Yrotation Zrotation
					JOINT LeftArm
					{
						OFFSET 7.778100 -0.187103 -1.709300
						CHANNELS 3 Xrotation Yrotation Zrotation
						JOINT LeftForeArm
						{
							OFFSET 22.049376 0.000000 0.000000
							CHANNELS 3 Xrotation Yrotation Zrotation
							JOINT LeftHand
							{
								OFFSET 23.009392 0.000000 0.000000
								CHANNELS 3 Xrotation Yrotation Zrotation
								JOINT LeftHandThumb1
								{
									OFFSET 3.507191 -2.063065 3.133727
									CHANNELS 3 Xrotation Yrotation Zrotation
									JOINT LeftHandThumb2
									{
										OFFSET 3.101337 -1.790558 1.790558
										CHANNELS 3 Xrotation Yrotation Zrotation
										JOINT LeftHandThumb3
										{
											OFFSET 3.058640 -1.765907 1.765906
											CHANNELS 3 Xrotation Yrotation Zrotation
											End Site
											{
												OFFSET -0.415260 3.926476 -0.049563
											}
										}
									}
								}
								JOINT LeftHandIndex1
								{
									OFFSET 11.334419 -0.901459 3.706815
									CHANNELS 3 Xrotation Yrotation Zrotation
									JOINT LeftHandIndex2
									{
										OFFSET 3.283112 0.000000 0.000000
										CHANNELS 3 Xrotation Yrotation Zrotation
										JOINT LeftHandIndex3
										{
											OFFSET 3.323853 0.000000 0.000000
											CHANNELS 3 Xrotation Yrotation Zrotation
											End Site
											{
												OFFSET -1.135597 3.097809 0.402452
											}
										}
									}
								}
								JOINT LeftHandMiddle1
								{
									OFFSET 11.335861 0.000000 0.000000
									CHANNELS 3 Xrotation Yrotation Zrotation
									JOINT LeftHandMiddle2
									{
										OFFSET 3.410492 0.000000 0.000000
										CHANNELS 3 Xrotation Yrotation Zrotation
										JOINT LeftHandMiddle3
										{
											OFFSET 3.312172 0.000000 0.000000
											CHANNELS 3 Xrotation Yrotation Zrotation
											End Site
											{
												OFFSET -1.150200 3.080154 0.400270
											}
										}
									}
								}
								JOINT LeftHandRing1
								{
									OFFSET 11.514786 -0.013176 -3.003090
									CHANNELS 3 Xrotation Yrotation Zrotation
									JOINT LeftHandRing2
									{
										OFFSET 3.053307 0.000000 0.000000
										CHANNELS 3 Xrotation Yrotation Zrotation
										JOINT LeftHandRing3
										{
											OFFSET 3.295807 0.000000 0.000000
											CHANNELS 3 Xrotation Yrotation Zrotation
											End Site
											{
												OFFSET -1.281006 3.013344 0.375733
											}
										}
									}
								}
								JOINT LeftHandPinky1
								{
									OFFSET 10.518692 -0.960396 -5.730441
									CHANNELS 3 Xrotation Yrotation Zrotation
									JOINT LeftHandPinky2
									{
										OFFSET 2.861649 0.000000 0.000000
										CHANNELS 3 Xrotation Yrotation Zrotation
										JOINT LeftHandPinky3
										{
											OFFSET 2.863380 0.000000 0.000000
											CHANNELS 3 Xrotation Yrotation Zrotation
											End Site
											{
												OFFSET -0.843597 2.711159 0.369971
											}
										}
									}
								}
							}
							JOINT LSleeve
							{
								OFFSET 6.676277 -0.344902 -1.011730
								CHANNELS 3 Xrotation Yrotation Zrotation
								End Site
								{
									OFFSET 0.000000 14.885353 0.000000
								}
							}
						}
					}
				}
				JOINT RightShoulder
				{
					OFFSET -6.197800 13.665199 -4.064700
					CHANNELS 3 Xrotation Yrotation Zrotation
					JOINT RightArm
					{
						OFFSET -7.778100 -0.187103 -1.709300
						CHANNELS 3 Xrotation Yrotation Zrotation
						JOINT RightForeArm
						{
							OFFSET -22.049376 0.000000 0.000000
							CHANNELS 3 Xrotation Yrotation Zrotation
							JOINT RightHand
							{
								OFFSET -23.009392 0.000000 0.000000
								CHANNELS 3 Xrotation Yrotation Zrotation
								JOINT RightHandThumb1
								{
									OFFSET -3.507191 -2.063065 3.133727
									CHANNELS 3 Xrotation Yrotation Zrotation
									JOINT RightHandThumb2
									{
										OFFSET -3.101337 -1.790558 1.790558
										CHANNELS 3 Xrotation Yrotation Zrotation
										JOINT RightHandThumb3
										{
											OFFSET -3.058640 -1.765907 1.765906
											CHANNELS 3 Xrotation Yrotation Zrotation
											End Site
											{
												OFFSET 0.415260 3.926476 -0.049563
											}
										}
									}
								}
								JOINT RightHandIndex1
								{
									OFFSET -11.334419 -0.901459 3.706815
									CHANNELS 3 Xrotation Yrotation Zrotation
									JOINT RightHandIndex2
									{
										OFFSET -3.283112 0.000000 0.000000
										CHANNELS 3 Xrotation Yrotation Zrotation
										JOINT RightHandIndex3
										{
											OFFSET -3.323853 0.000000 0.000000
											CHANNELS 3 Xrotation Yrotation Zrotation
											End Site
											{
												OFFSET 1.135597 3.097809 0.402452
											}
										}
									}
								}
								JOINT RightHandMiddle1
								{
									OFFSET -11.335861 0.000000 0.000000
									CHANNELS 3 Xrotation Yrotation Zrotation
									JOINT RightHandMiddle2
									{
										OFFSET -3.410492 0.000000 0.000000
										CHANNELS 3 Xrotation Yrotation Zrotation
										JOINT RightHandMiddle3
										{
											OFFSET -3.312172 0.000000 0.000000
											CHANNELS 3 Xrotation Yrotation Zrotation
											End Site
											{
												OFFSET 1.150200 3.080154 0.400270
											}
										}
									}
								}
								JOINT RightHandRing1
								{
									OFFSET -11.514786 -0.013176 -3.003090
									CHANNELS 3 Xrotation Yrotation Zrotation
									JOINT RightHandRing2
									{
										OFFSET -3.053307 0.000000 0.000000
										CHANNELS 3 Xrotation Yrotation Zrotation
										JOINT RightHandRing3
										{
											OFFSET -3.295807 0.000000 0.000000
											CHANNELS 3 Xrotation Yrotation Zrotation
											End Site
											{
												OFFSET 1.281006 3.013344 0.375733
											}
										}
									}
								}
								JOINT RightHandPinky1
								{
									OFFSET -10.518692 -0.960396 -5.730441
									CHANNELS 3 Xrotation Yrotation Zrotation
									JOINT RightHandPinky2
									{
										OFFSET -2.861649 0.000000 0.000000
										CHANNELS 3 Xrotation Yrotation Zrotation
										JOINT RightHandPinky3
										{
											OFFSET -2.863380 0.000000 0.000000
											CHANNELS 3 Xrotation Yrotation Zrotation
											End Site
											{
												OFFSET 0.843597 2.711159 0.369971
											}
										}
									}
								}
							}
							JOINT RSleeve
							{
								OFFSET -6.676277 -0.344902 -1.011730
								CHANNELS 3 Xrotation Yrotation Zrotation
								End Site
								{
									OFFSET 0.000000 14.885353 0.000000
								}
							}
						}
					}
				}
				JOINT Backpack
				{
					OFFSET 0.000000 -2.471497 36.677502
					CHANNELS 3 Xrotation Yrotation Zrotation
					End Site
					{
						OFFSET 0.000000 20.427315 0.000000
					}
				}
				JOINT Hood
				{
					OFFSET 0.000000 18.754097 -10.431000
					CHANNELS 3 Xrotation Yrotation Zrotation
					JOINT Hood1
					{
						OFFSET 0.000000 -5.011002 -7.685901
						CHANNELS 3 Xrotation Yrotation Zrotation
						End Site
						{
							OFFSET 0.000000 9.175140 0.000000
						}
					}
				}
				JOINT LHoodieString
				{
					OFFSET 5.250500 16.397697 3.089900
					CHANNELS 3 Xrotation Yrotation Zrotation
					JOINT LHoodieString1
					{
						OFFSET 0.257700 -6.364304 3.694600
						CHANNELS 3 Xrotation Yrotation Zrotation
						JOINT LHoodieString2
						{
							OFFSET 0.000000 -9.643799 2.679100
							CHANNELS 3 Xrotation Yrotation Zrotation
							End Site
							{
								OFFSET 0.000000 10.009018 0.000000
							}
						}
					}
				}
				JOINT RHoodieString
				{
					OFFSET -5.250500 16.397697 3.089900
					CHANNELS 3 Xrotation Yrotation Zrotation
					JOINT RHoodieString1
					{
						OFFSET -0.257700 -6.364304 3.694600
						CHANNELS 3 Xrotation Yrotation Zrotation
						JOINT RHoodieString2
						{
							OFFSET 0.000000 -9.643799 2.679100
							CHANNELS 3 Xrotation Yrotation Zrotation
							End Site
							{
								OFFSET 0.000000 10.009018 0.000000
							}
						}
					}
				}
			}
			JOINT LBackpack_Strap
			{
				OFFSET 15.223200 -7.719803 -6.610900
				CHANNELS 3 Xrotation Yrotation Zrotation
				End Site
				{
					OFFSET 0.000000 16.040596 0.000000
				}
			}
			JOINT RBackpack_Strap
			{
				OFFSET -15.223000 -7.719803 -6.610900
				CHANNELS 3 Xrotation Yrotation Zrotation
				End Site
				{
					OFFSET 0.000000 16.040596 0.000000
				}
			}
		}
	}
	JOINT BoyFacialAnim_Joint
	{
		OFFSET 1.000000 -82.208099 -1.550900
		CHANNELS 3 Xrotation Yrotation Zrotation
		End Site
		{
			OFFSET 0.000000 30.012791 0.000000
		}
	}
}
MOTION
Frames: 4
Frame Time: 0.033333
-13.081692 79.397522 49.083801 18.997615 53.425921 -65.275216 -0.000002 0.000000 0.000002 -43.364963 -9.807460 45.725661 52.872419 -0.186447 11.700645 -28.742945 -11.649213 -6.329410 -0.000000 -0.000001 0.000000 -0.000000 -0.000001 0.000000 -0.000002 0.000001 -0.000000 -74.837386 -23.216648 -22.696942 96.618702 -12.401446 -2.278366 35.493112 2.944307 8.457390 0.000000 -0.000001 -0.000000 0.000000 -0.000001 -0.000000 0.000000 -0.000000 0.000000 0.889937 -10.400834 1.128628 6.453557 -3.017324 10.305856 10.032841 -8.975834 9.567388 -5.098875 -6.629039 -0.063491 13.493736 -7.407420 24.958126 -0.000000 -0.000000 0.000000 -0.000000 -0.000000 0.000000 -0.000000 -0.000000 0.000000 6.301188 -12.934197 -0.763231 -12.156091 -51.992250 -18.542309 0.001318 -88.551203 0.001131 14.826860 -3.061614 -17.160825 0.262049 1.003374 4.688154 -5.658855 13.737959 7.502222 -0.000001 -0.000003 -0.000002 -1.736631 -5.391762 -15.842042 0.706328 3.042658 -26.132893 -0.000002 -0.000001 -0.000002 -0.255421 -2.006627 -6.284789 1.078543 3.704999 -32.451124 0.000001 -0.000005 -0.000001 0.373893 2.917198 -8.828060 1.079660 3.706774 -32.468558 -0.000001 0.000002 -0.000004 4.181874 14.672710 -16.382098 0.701406 -1.043913 -26.350334 0.000000 -0.000002 -0.000000 0.000002 0.000005 -0.000003 -0.096476 -19.847970 -7.322470 16.521642 10.170526 40.433917 -0.000000 12.942975 0.000001 -54.388363 -2.830603 3.618382 -4.580876 -9.882371 -5.858316 9.315819 -9.003017 -12.164650 0.000003 0.000000 0.000001 -1.297510 7.034375 10.196048 0.263658 -1.900224 15.797594 0.000001 -0.000003 -0.000000 0.018083 -0.502207 4.172824 0.756417 -3.158839 26.926902 0.000001 0.000001 0.000002 1.319295 -5.964422 14.326170 0.556793 -2.731018 23.042886 -0.000001 0.000003 -0.000003 7.163817 -13.061259 32.637540 0.339712 -2.150799 17.949032 0.000001 -0.000001 -0.000003 -0.000000 0.000000 -0.000001 -0.000000 -0.000002 -0.000002 -0.000000 -0.000002 -0.000002 -0.000000 -0.000002 -0.000002 -0.000000 -0.000002 -0.000002 -0.000000 -0.000002 0.000000 -0.000000 0.000000 0.000001 -0.000000 -0.000002 -0.000002 -0.000000 -0.000002 0.000000 -0.000000 0.000000 0.000001 0.000000 0.000002 -0.000000 0.000000 0.000002 -0.000000 -0.000002 0.000000 0.000002 
-11.892456 78.758492 47.205395 14.051092 52.349100 -55.228261 -0.000000 0.000001 0.000003 -40.575350 -4.381630 40.022644 54.074416 3.277036 10.348125 -30.545463 -11.249306 -4.399970 0.000000 -0.000001 0.000000 0.000000 -0.000001 0.000000 0.000000 -0.000001 0.000002 -68.500418 -28.459129 -24.370571 99.097965 -8.277743 -1.071131 31.808690 4.272116 18.070715 0.000001 -0.000000 -0.000001 0.000001 -0.000000 -0.000001 0.000000 0.000001 -0.000006 1.584555 -10.488841 -0.254711 6.639936 -3.945329 8.081009 10.019813 -11.039031 7.986637 -4.444734 -5.948216 0.025097 12.143722 -6.646046 24.583256 0.000001 0.000001 0.000000 0.000001 0.000001 0.000000 0.000001 0.000001 0.000000 5.900277 -10.255801 0.065122 -14.096793 -53.508006 -21.036395 -0.005351 -88.762707 -0.005367 14.377832 2.546223 -27.448942 0.416279 1.271049 4.579570 -5.253443 14.476859 6.744792 0.000001 -0.000002 -0.000000 -1.824394 -4.539068 -18.405171 0.900477 3.409421 -29.581761 -0.000002 0.000001 0.000002 -0.331939 -1.512326 -9.278363 1.275266 3.996924 -35.379574 0.000003 -0.000003 -0.000000 0.467577 2.933222 -11.851866 1.267322 3.985759 -35.265626 0.000002 -0.000000 -0.000000 4.584149 13.846501 -19.340625 0.853633 -0.754045 -29.061010 -0.000000 -0.000000 0.000001 0.000000 0.000003 -0.000001 -0.273963 -17.934907 -7.476213 10.847803 4.387803 39.024661 0.000000 25.955276 -0.000000 -58.856170 4.287035 0.223531 -4.332367 -9.913938 -5.506409 9.794939 -9.788354 -11.573067 0.000001 0.000001 -0.000000 -1.494751 6.003697 12.958554 0.405393 -2.343798 19.624701 -0.000003 0.000001 0.000002 0.055015 -0.874728 7.248376 0.938028 -3.492886 30.056698 0.000001 -0.000002 -0.000001 1.463956 -5.723098 17.245676 0.703989 -3.053587 25.959442 0.000000 0.000003 0.000004 6.929440 -11.989989 34.927405 0.461708 -2.495929 20.957773 0.000002 0.000002 -0.000005 -0.000000 -0.000000 -0.000000 -0.000001 -0.000001 -0.000002 -0.000001 -0.000001 -0.000002 -0.000001 -0.000001 -0.000002 -0.000001 -0.000001 -0.000002 -0.000001 -0.000001 -0.000001 -0.000001 0.000001 -0.000003 -0.000001 -0.000001 -0.000002 -0.000001 -0.000001 -0.000001 -0.000001 0.000001 -0.000003 0.000001 0.000001 -0.000001 0.000001 0.000001 -0.000001 -0.000000 0.000001 0.000003 
-9.891468 78.548775 45.047611 6.692489 48.768049 -42.409406 -0.000000 -0.000000 0.000002 -34.369970 3.057724 33.638723 52.580883 5.085915 7.161443 -31.310052 -8.067369 -0.313241 -0.000000 0.000001 -0.000000 -0.000000 0.000001 -0.000000 -0.000000 0.000001 -0.000000 -60.059827 -31.459793 -23.523554 97.766494 4.211046 0.409982 29.022188 0.381013 21.018316 -0.000001 -0.000000 0.000000 -0.000001 -0.000000 0.000000 0.000000 -0.000001 0.000000 1.943403 -10.306311 -1.671458 6.607888 -4.804824 5.852182 9.724470 -12.957046 6.354418 -3.254451 -4.667927 -0.176691 10.998198 -5.778095 22.900671 -0.000000 0.000000 0.000000 -0.000000 0.000000 0.000000 -0.000000 0.000000 0.000000 5.362003 -7.461025 0.882426 -10.675959 -53.117343 -22.506926 -0.030161 -90.574319 -0.030408 13.562522 6.914624 -28.458856 0.593273 1.574460 4.456609 -4.781376 15.332030 5.879012 -0.000003 -0.000000 0.000001 -1.854541 -3.581224 -21.314529 1.147463 3.811004 -33.502740 -0.000002 -0.000000 -0.000005 -0.378862 -0.943174 -12.677157 1.516624 4.315871 -38.708796 0.000003 -0.000000 0.000002 0.555865 2.955353 -15.286967 1.496824 4.291118 -38.444888 -0.000001 -0.000000 -0.000002 4.933969 12.915337 -22.685201 1.042828 -0.434183 -32.138888 -0.000002 0.000001 0.000005 -0.000001 0.000003 0.000001 -0.435607 -16.246561 -7.656410 6.050719 4.243483 38.065044 0.000000 40.256493 -0.000000 -52.280300 11.940904 -2.511214 -4.049848 -9.947547 -5.106354 10.346990 -10.685865 -10.893899 -0.000005 -0.000001 -0.000002 -1.623054 4.840303 16.090339 0.602058 -2.834936 23.974734 0.000000 0.000000 0.000002 0.121127 -1.294807 10.742966 1.166259 -3.859704 33.614824 0.000002 -0.000003 -0.000001 1.584709 -5.458816 20.560538 0.890893 -3.410263 29.273422 -0.000000 0.000000 -0.000001 6.575257 -10.836759 37.529646 0.621943 -2.879164 24.373730 -0.000001 0.000003 -0.000001 -0.000000 0.000001 0.000000 -0.000001 -0.000001 -0.000002 -0.000001 -0.000001 -0.000002 -0.000001 -0.000001 -0.000002 -0.000001 -0.000001 -0.000002 -0.000001 -0.000001 -0.000002 -0.000001 -0.000000 -0.000002 -0.000001 -0.000001 -0.000002 -0.000001 -0.000001 -0.000002 -0.000001 -0.000000 -0.000002 -0.000000 -0.000000 -0.000002 -0.000000 -0.000000 -0.000002 -0.000000 -0.000000 0.000002 
-7.340900 78.799561 42.965897 -0.962504 41.960943 -29.524917 -0.000001 0.000001 0.000002 -24.333391 10.502538 24.364156 46.690333 7.198784 4.156488 -30.479692 -2.126110 4.241350 -0.000000 -0.000003 0.000000 -0.000000 -0.000003 0.000000 0.000001 0.000002 -0.000001 -51.479289 -31.924557 -19.414101 94.956193 9.143280 -0.712321 29.403182 0.332609 11.476020 -0.000002 -0.000000 0.000000 -0.000002 -0.000000 0.000000 0.000000 -0.000000 0.000000 2.077559 -9.951178 -2.653851 6.353201 -5.551388 3.860645 9.169041 -14.652233 4.878770 -1.686856 -2.736765 -0.947580 9.727058 -4.945857 19.813766 0.000000 0.000000 0.000000 0.000000 0.000000 0.000000 0.000000 0.000000 0.000000 4.633172 -4.004424 1.740291 -0.859808 -50.000168 -22.464323 0.003565 -93.202139 0.003592 13.539333 8.493797 -18.238758 0.790956 1.908784 4.321304 -4.244583 16.295310 4.915389 0.000000 -0.000001 0.000001 -1.804805 -2.543643 -24.527846 1.451683 4.233795 -37.837578 -0.000003 0.000001 -0.000003 -0.380970 -0.311599 -16.430088 1.804426 4.651227 -42.389138 0.000006 -0.000003 0.000003 0.632841 2.988421 -19.080772 1.769679 4.613012 -41.958839 -0.000001 0.000000 -0.000005 5.193984 11.909869 -26.362531 1.271235 -0.093445 -35.537495 0.000001 0.000000 -0.000000 -0.000000 0.000004 -0.000001 -0.486402 -14.537089 -7.308273 3.570140 11.143017 35.094550 0.000000 51.587183 -0.000002 -41.859176 14.617553 -6.024284 -3.737596 -9.981873 -4.664144 10.966959 -11.683470 -10.134484 0.000002 0.000004 -0.000002 -1.650113 3.575059 19.546051 0.861961 -3.358211 28.783134 -0.000003 0.000000 0.000002 0.223747 -1.753141 14.604152 1.444440 -4.247543 37.548333 -0.000001 0.000001 -0.000003 1.667636 -5.185626 24.219726 1.120914 -3.790789 32.935258 0.000003 -0.000002 0.000004 6.086195 -9.652157 40.407662 0.825001 -3.290113 28.145767 -0.000003 0.000002 0.000001 0.000000 -0.000001 0.000000 0.000000 0.000000 0.000000 0.000000 0.000000 0.000000 0.000000 0.000000 0.000000 0.000000 0.000000 0.000000 0.000000 0.000000 0.000000 0.000000 -0.000000 0.000002 0.000000 0.000000 0.000000 0.000000 0.000000 0.000000 0.000000 -0.000000 0.000002 -0.000000 -0.000001 0.000002 -0.000000 -0.000001 0.000002 -0.000001 0.000001 0.000002 
